<mxfile host="app.diagrams.net" modified="2024-01-23T09:18:15.141Z" agent="Mozilla/5.0 (Macintosh; Intel Mac OS X 10_15_7) AppleWebKit/537.36 (KHTML, like Gecko) Chrome/120.0.0.0 Safari/537.36" etag="ymNE06FtL8LUmJn3x9CL" version="22.1.21" type="github">
  <diagram name="第 1 页" id="PRWc8srVMGyczQrooAQY">
    <mxGraphModel dx="692" dy="739" grid="1" gridSize="10" guides="1" tooltips="1" connect="1" arrows="1" fold="1" page="1" pageScale="1" pageWidth="827" pageHeight="1169" math="0" shadow="0">
      <root>
        <mxCell id="0" />
        <mxCell id="1" parent="0" />
        <mxCell id="gSXuu1lgx1m6XNmsDmMs-12" value="" style="edgeStyle=orthogonalEdgeStyle;rounded=0;orthogonalLoop=1;jettySize=auto;html=1;" edge="1" parent="1" source="gSXuu1lgx1m6XNmsDmMs-1" target="gSXuu1lgx1m6XNmsDmMs-9">
          <mxGeometry relative="1" as="geometry" />
        </mxCell>
        <mxCell id="gSXuu1lgx1m6XNmsDmMs-1" value="NewNoteItemChildController" style="swimlane;fontStyle=1;align=center;verticalAlign=top;childLayout=stackLayout;horizontal=1;startSize=26;horizontalStack=0;resizeParent=1;resizeParentMax=0;resizeLast=0;collapsible=1;marginBottom=0;whiteSpace=wrap;html=1;" vertex="1" parent="1">
          <mxGeometry x="40" y="150" width="200" height="100" as="geometry" />
        </mxCell>
        <mxCell id="gSXuu1lgx1m6XNmsDmMs-3" value="" style="line;strokeWidth=1;fillColor=none;align=left;verticalAlign=middle;spacingTop=-1;spacingLeft=3;spacingRight=3;rotatable=0;labelPosition=right;points=[];portConstraint=eastwest;strokeColor=inherit;" vertex="1" parent="gSXuu1lgx1m6XNmsDmMs-1">
          <mxGeometry y="26" width="200" height="8" as="geometry" />
        </mxCell>
        <mxCell id="gSXuu1lgx1m6XNmsDmMs-4" value="# onAttach()&lt;br&gt;--------&amp;gt;&lt;br&gt;- bindSubjectView()&lt;br&gt;" style="text;strokeColor=none;fillColor=none;align=left;verticalAlign=top;spacingLeft=4;spacingRight=4;overflow=hidden;rotatable=0;points=[[0,0.5],[1,0.5]];portConstraint=eastwest;whiteSpace=wrap;html=1;" vertex="1" parent="gSXuu1lgx1m6XNmsDmMs-1">
          <mxGeometry y="34" width="200" height="66" as="geometry" />
        </mxCell>
        <mxCell id="gSXuu1lgx1m6XNmsDmMs-9" value="CostTrackerHelper" style="swimlane;fontStyle=1;align=center;verticalAlign=top;childLayout=stackLayout;horizontal=1;startSize=26;horizontalStack=0;resizeParent=1;resizeParentMax=0;resizeLast=0;collapsible=1;marginBottom=0;whiteSpace=wrap;html=1;" vertex="1" parent="1">
          <mxGeometry x="314" y="165" width="200" height="70" as="geometry" />
        </mxCell>
        <mxCell id="gSXuu1lgx1m6XNmsDmMs-10" value="" style="line;strokeWidth=1;fillColor=none;align=left;verticalAlign=middle;spacingTop=-1;spacingLeft=3;spacingRight=3;rotatable=0;labelPosition=right;points=[];portConstraint=eastwest;strokeColor=inherit;" vertex="1" parent="gSXuu1lgx1m6XNmsDmMs-9">
          <mxGeometry y="26" width="200" height="8" as="geometry" />
        </mxCell>
        <mxCell id="gSXuu1lgx1m6XNmsDmMs-11" value="# setStageById()" style="text;strokeColor=none;fillColor=none;align=left;verticalAlign=top;spacingLeft=4;spacingRight=4;overflow=hidden;rotatable=0;points=[[0,0.5],[1,0.5]];portConstraint=eastwest;whiteSpace=wrap;html=1;" vertex="1" parent="gSXuu1lgx1m6XNmsDmMs-9">
          <mxGeometry y="34" width="200" height="36" as="geometry" />
        </mxCell>
      </root>
    </mxGraphModel>
  </diagram>
</mxfile>
